PathFileType	4	(X/Y/Z)	C:\Git\research_data\Projects\torsion_deformities_healthy_kinematics\simulations\TD01\pre\dynamic_13_l\marker_experimental.trc
DataRate	CameraRate	NumFrames	NumMarkers	Units	OrigDataRate	OrigDataStartFrame	OrigNumFrames
200	200	7	30	mm	200	193	513
Frame#	Time	C7			T10			CLAV			STRN			RBAK			LASI			RASI			SACR			RT1			RT2			RT3			RKNE			RS1			RS2			RS3			RANK			RHEE			RTOE			LT1			LT2			LT3			LKNE			LS1			LS2			LS3			LANK			LHEE			LTOE			RHJC			LHJC		
		X1	Y1	Z1	X2	Y2	Z2	X3	Y3	Z3	X4	Y4	Z4	X5	Y5	Z5	X6	Y6	Z6	X7	Y7	Z7	X8	Y8	Z8	X9	Y9	Z9	X10	Y10	Z10	X11	Y11	Z11	X12	Y12	Z12	X13	Y13	Z13	X14	Y14	Z14	X15	Y15	Z15	X16	Y16	Z16	X17	Y17	Z17	X18	Y18	Z18	X19	Y19	Z19	X20	Y20	Z20	X21	Y21	Z21	X22	Y22	Z22	X23	Y23	Z23	X24	Y24	Z24	X25	Y25	Z25	X26	Y26	Z26	X27	Y27	Z27	X28	Y28	Z28	X29	Y29	Z29	X30	Y30	Z30	

193	0.960000	399.034973	1232.580078	189.916443	351.979950	1049.015503	182.394058	517.092529	1179.801636	188.915771	559.192505	1044.776123	187.616058	362.981018	1159.135132	284.737396	502.723572	837.883545	92.731964	467.802887	852.142395	293.478638	326.984406	885.447449	164.584198	390.395996	650.882629	322.335693	339.533875	607.503540	320.326202	386.589722	586.088928	307.518555	322.678833	461.550537	288.806427	224.369675	361.964691	308.505096	180.111374	313.758636	297.012360	227.666275	296.930420	295.608215	114.166962	126.965736	264.957733	68.359474	136.424667	212.976639	234.975540	60.245167	241.799210	498.647217	650.649292	44.261425	492.968750	584.336121	46.727638	540.084045	601.049988	61.834805	565.935181	463.468353	78.400314	570.115479	318.777679	56.947735	588.210571	255.871628	67.962585	628.333374	288.242462	63.361244	673.780518	95.742279	92.394791	649.024719	73.907318	141.796921	821.254822	134.147415	95.184158	406.983457	792.476366	259.232834	432.527158	782.046335	112.391127	
194	0.965000	406.037018	1232.031250	189.236542	359.202881	1048.344604	181.903030	524.164124	1179.331909	188.193085	566.469971	1044.384155	186.835022	370.058655	1158.483643	284.052460	510.272156	837.435181	92.257225	475.556732	851.405823	292.986328	334.481781	884.700867	164.265472	397.739563	650.252563	322.037354	346.777679	606.968933	320.223419	393.746185	585.427795	307.329498	329.461578	460.843323	289.104980	229.662155	362.509460	308.802338	184.653336	314.957642	297.488098	231.974243	297.431366	295.926300	115.850273	129.046173	265.636292	70.275780	139.557800	213.703201	235.261154	60.154476	241.819733	506.977264	650.580444	44.600227	501.688721	584.431091	47.173534	548.651611	601.426147	62.737556	572.917236	462.732971	78.890488	576.000061	317.449493	58.211433	593.685364	254.487518	69.589973	634.069031	286.559631	64.406715	678.690918	94.452835	94.148682	653.714539	73.127785	143.501266	826.271362	131.081894	97.412422	414.763371	791.728158	258.741714	440.157805	781.508592	111.907787	
195	0.970000	413.047424	1231.531250	188.547974	366.445557	1047.718384	181.421967	531.245117	1178.917847	187.455383	573.773987	1044.055908	186.024643	377.154236	1157.880249	283.358673	517.829712	837.072449	91.758629	483.387299	850.682068	292.465271	341.998596	884.000610	163.997528	405.272736	649.612610	321.729431	354.228943	606.403809	320.125336	401.126801	584.756836	307.149292	336.565552	460.072174	289.463715	235.212402	363.064636	309.148712	189.430756	316.195801	298.000244	236.509384	297.949768	296.311676	117.726524	131.230392	266.355316	72.443542	142.849609	214.458679	235.567673	60.036182	241.826111	515.353333	650.629639	44.909866	510.488861	584.605957	47.638199	557.301514	601.906189	63.604603	580.144958	462.118317	79.411728	581.988403	316.240906	59.445522	599.118835	253.173859	71.165169	639.826904	284.873352	65.509781	683.143250	93.126999	95.775909	657.731018	72.400032	144.960663	830.872681	127.295677	99.956848	422.613431	791.005388	258.224142	447.809276	781.049470	111.400126	
196	0.975000	420.064636	1231.083618	187.853622	373.704529	1047.141602	180.952118	538.333557	1178.562622	186.705460	581.100952	1043.793945	185.188065	384.266418	1157.329712	282.659454	525.388916	836.801147	91.238670	491.285736	849.975403	291.916626	349.528778	883.352661	163.780487	412.998657	648.962341	321.411682	361.896667	605.802185	320.031952	408.743713	584.075684	306.980316	344.005707	459.234406	289.885620	241.040970	363.629700	309.547058	194.467682	317.471161	298.545380	241.294388	298.485016	296.768433	119.828751	133.517441	267.112335	74.905136	146.301392	215.237747	235.893646	59.883991	241.813690	523.739380	650.778687	45.178467	519.297119	584.832153	48.108616	565.972900	602.438843	64.400894	587.598816	461.634338	79.964111	588.126892	315.187073	60.618313	604.585388	251.973694	72.643623	645.659912	283.246521	66.665741	687.219849	91.819000	97.251984	661.165283	71.773933	146.153015	835.139404	122.881180	102.776337	430.524811	790.313277	257.680306	455.473855	780.675317	110.869268	
197	0.980000	427.086853	1230.691650	187.156525	380.975952	1046.618652	180.494705	545.427246	1178.268799	185.946289	588.446960	1043.600342	184.328781	391.393555	1156.836060	281.958496	532.942078	836.626526	90.699928	499.242462	849.290344	291.341766	357.066010	882.762573	163.614029	420.919983	648.300720	321.083740	369.790375	605.156616	319.943359	416.609375	583.382996	306.824799	351.796021	458.327942	290.372162	247.170380	364.202881	309.999329	199.791443	318.780304	299.119568	246.354706	299.035248	297.300049	122.193146	135.904861	267.904999	77.706070	149.912659	216.035690	236.237610	59.692467	241.777664	532.101318	651.012756	45.394630	528.044250	585.088745	48.571041	574.606506	602.981873	65.092529	595.255066	461.290771	80.545036	594.457947	314.322815	61.697392	610.156128	250.931290	73.979324	651.615723	281.742249	67.868370	690.997864	90.581032	98.557854	664.109375	71.294945	147.066269	839.143372	117.953041	105.818344	438.488028	789.657023	257.110715	463.143432	780.391886	110.316591	
198	0.985000	434.112152	1230.358032	186.459824	388.255890	1046.153931	180.050995	552.523926	1178.038574	185.181000	595.807556	1043.476685	183.450577	398.533752	1156.403442	281.259491	540.481323	836.553223	90.144859	507.246979	848.631165	290.742432	364.603851	882.235168	163.497330	429.038879	647.626160	320.745331	377.919617	604.458801	319.859589	424.735809	582.676941	306.684479	359.948700	457.351410	290.923035	253.624344	364.781219	310.506470	205.431763	320.118164	299.718567	251.717804	299.597321	297.909180	124.858322	138.388840	268.731201	80.893784	153.680923	216.848892	236.598526	59.457790	241.713303	540.408142	651.321289	45.548031	536.667419	585.364197	49.010883	583.147461	603.504822	65.649139	603.086548	461.096558	81.149612	601.017212	313.680176	62.651512	615.893616	250.089172	75.127174	657.733337	280.419403	69.109825	694.544434	89.459282	99.680557	666.651245	70.999123	147.698502	842.941956	112.644630	109.021332	446.492859	789.041243	256.516080	470.809678	780.204086	109.743369	
199	0.990000	441.138306	1230.085449	185.766754	395.540100	1045.750977	179.622192	559.621033	1177.874146	184.412811	603.177979	1043.424194	182.557510	405.684937	1156.035522	280.566284	547.998474	836.585083	89.575752	515.288208	848.002197	290.120697	372.135681	881.774963	163.429077	437.356354	646.936890	320.396057	386.293213	603.699890	319.780670	433.133728	581.955017	306.560638	368.473724	456.304535	291.536224	260.426910	365.360291	311.068481	211.419815	321.477905	300.337891	257.412292	300.166779	298.597565	127.864250	140.964355	269.589386	84.516136	157.601593	217.675156	236.976364	59.178608	241.616516	548.632629	651.698242	45.630028	545.113708	585.656677	49.412716	591.547791	603.991089	66.045921	611.063660	461.059052	81.771080	607.830261	313.286133	63.452343	621.846313	249.484818	76.045547	664.039124	279.328003	70.380920	697.912598	88.490234	100.613899	668.869934	70.909042	148.057999	846.573608	107.103180	112.317436	454.528415	788.470368	255.897529	478.463792	780.116021	109.150975	
